<?xml version="1.0" encoding="utf-8"?>
<!-- Generator: Adobe Illustrator 24.0.1, SVG Export Plug-In . SVG Version: 6.00 Build 0)  -->
<svg version="1.1" id="Layer_1" xmlns="http://www.w3.org/2000/svg" xmlns:xlink="http://www.w3.org/1999/xlink" x="0px" y="0px"
	 viewBox="0 0 500 443.67" style="enable-background:new 0 0 500 443.67;" xml:space="preserve">
<style type="text/css">
	.st0{fill-rule:evenodd;clip-rule:evenodd;fill:#E8F4FC;}
	.st1{opacity:0.57;fill-rule:evenodd;clip-rule:evenodd;fill:#FFFFFF;}
	.st2{opacity:0.66;fill-rule:evenodd;clip-rule:evenodd;fill:#D2E6F3;}
</style>
<g>
	<path class="st0" d="M375.02,300.66c22.51,0.31,42.47-14.4,48.84-35.99c6.37-21.59-2.42-44.78-21.5-56.73
		c-19.07-11.95-43.78-9.74-60.43,5.41c6.24-29.03-4.15-59.12-26.98-78.11c-22.83-18.99-54.31-23.72-81.72-12.29
		c-27.4,11.43-46.19,37.13-48.76,66.71c-14.71-8.06-32.49-8.21-47.33-0.4c-14.85,7.81-24.78,22.55-26.47,39.24
		c-12.76-5.63-27.63-3.36-38.14,5.81c-10.51,9.17-14.76,23.59-10.92,37c3.84,13.41,15.1,23.38,28.87,25.58
		c10.73,3.78,33.97,5.04,69.71,3.77C231.8,301.24,303.41,301.24,375.02,300.66z"/>
	<path class="st1" d="M266.43,116.79c33.44,0,60.55,22.45,60.55,50.14c0,27.69-27.11,50.14-60.55,50.14
		c-33.44,0-60.55-22.45-60.55-50.14C205.88,139.24,232.99,116.79,266.43,116.79z"/>
	<path class="st2" d="M375.02,300.66c22.51,0.31,42.47-14.4,48.84-35.99c6.13-20.78-1.78-43.04-19.39-55.34
		c-0.69-0.48-1.89-2.21-2.1-1.39c-23,88.38-257.7,98.55-291.69,20.57c-0.33-0.15-0.67-0.29-1.01-0.43
		c-12.53-5.08-26.9-2.69-37.13,6.24c-10.51,9.17-14.76,23.59-10.92,37c3.84,13.41,15.1,23.38,28.87,25.58
		c10.73,3.78,33.97,5.04,69.71,3.77C231.8,301.24,303.41,301.24,375.02,300.66z"/>
</g>
</svg>
