<?xml version="1.0" encoding="utf-8"?>
<!-- Generator: Adobe Illustrator 21.0.0, SVG Export Plug-In . SVG Version: 6.00 Build 0)  -->
<svg version="1.1" id="Layer_1" xmlns="http://www.w3.org/2000/svg" x="0px" y="0px"
     viewBox="0 0 512 512" style="enable-background:new 0 0 512 512;" xml:space="preserve">
<g>
	<g>
		<path d="M377.7,53.3c0-29.4-23.9-53.3-53.3-53.3S271,23.9,271,53.3v332.1c-13.6,14-21.3,32.6-21.3,51.9
			c0,41.2,33.5,74.7,74.7,74.7c41.2,0,74.7-33.5,74.7-74.7c0-19.3-7.7-38-21.3-51.9L377.7,53.3L377.7,53.3z M324.3,490.7
			c-29.4,0-53.3-23.9-53.3-53.3c0-15.1,6.3-29.1,17.8-39.5c2.2-2,3.5-4.9,3.5-7.9V53.3c0-17.6,14.4-32,32-32s32,14.4,32,32v336.6
			c0,3,1.3,5.9,3.5,7.9c11.5,10.3,17.8,24.4,17.8,39.5C377.7,466.7,353.7,490.7,324.3,490.7z"/>
		<path d="M336,407.3V224c0-5.9-4.8-10.7-10.7-10.7s-10.7,4.8-10.7,10.7v183.3c-12.4,4.4-21.3,16.1-21.3,30c0,17.6,14.4,32,32,32
			s32-14.4,32-32C357.3,423.4,348.4,411.7,336,407.3z M325.3,448c-5.9,0-10.7-4.8-10.7-10.7c0-5.9,4.8-10.7,10.7-10.7
			c5.9,0,10.7,4.8,10.7,10.7C336,443.2,331.2,448,325.3,448z"/>
		<g>
			<path d="M393,352c0,5.9,4.8,10.7,10.7,10.7h64c5.9,0,10.7-4.8,10.7-10.7s-4.8-10.7-10.7-10.7h-64C397.8,341.3,393,346.1,393,352z
				"/>
			<path d="M393,309.3c0,5.9,4.8,10.7,10.7,10.7H425c5.9,0,10.7-4.8,10.7-10.7c0-5.9-4.8-10.7-10.7-10.7h-21.3
				C397.8,298.7,393,303.4,393,309.3z"/>
			<path d="M393,266.7c0,5.9,4.8,10.7,10.7,10.7H425c5.9,0,10.7-4.8,10.7-10.7S430.9,256,425,256h-21.3
				C397.8,256,393,260.8,393,266.7z"/>
			<path d="M478.3,224c0-5.9-4.8-10.7-10.7-10.7h-64c-5.9,0-10.7,4.8-10.7,10.7s4.8,10.7,10.7,10.7h64
				C473.6,234.7,478.3,229.9,478.3,224z"/>
			<path d="M478.3,96c0-5.9-4.8-10.7-10.7-10.7h-64c-5.9,0-10.7,4.8-10.7,10.7s4.8,10.7,10.7,10.7h64
				C473.6,106.7,478.3,101.9,478.3,96z"/>
			<path d="M393,181.3c0,5.9,4.8,10.7,10.7,10.7H425c5.9,0,10.7-4.8,10.7-10.7c0-5.9-4.8-10.7-10.7-10.7h-21.3
				C397.8,170.7,393,175.4,393,181.3z"/>
			<path d="M393,138.7c0,5.9,4.8,10.7,10.7,10.7H425c5.9,0,10.7-4.8,10.7-10.7c0-5.9-4.8-10.7-10.7-10.7h-21.3
				C397.8,128,393,132.8,393,138.7z"/>
		</g>
	</g>
	<g>
		<path d="M218,149.3c-17.6,0-32,14.4-32,32s14.4,32,32,32s32-14.4,32-32C250,163.7,235.6,149.3,218,149.3z M218,192
			c-5.9,0-10.7-4.8-10.7-10.7c0-5.9,4.8-10.7,10.7-10.7s10.7,4.8,10.7,10.7C228.7,187.2,223.9,192,218,192z"/>
		<g>
			<path d="M115.8,149.3h-1.4H93h-1.2c-27.2,0-49.5,20.9-51.8,47.6c-0.2,1.9-0.3,3.8-0.3,5.8V288h0.1v40.1c0,1.2,0,2.4,0.1,3.6
				c0.4,6.4,5.3,9.6,10.3,9.6c5.3,0,10.6-3.6,10.6-10.5V288H61v-21h12.3v-0.1h59.1c1.2,0,2.4,0,3.6-0.1c13.3-0.9,12.5-20.9-0.9-20.9
				H73.3v-0.2H61v-43c0-17.6,14.4-32,32-32h21.3c17.6,0,32,14.4,32,32c0,5.9,4.8,10.7,10.7,10.7c5.9,0,10.7-4.8,10.7-10.7
				c0-2.1-0.1-4.1-0.4-6.2h0.3C165.1,170,142.9,149.3,115.8,149.3L115.8,149.3z"/>
		</g>
	</g>
</g>
</svg>
