<?xml version="1.0" encoding="utf-8"?>
<!-- Generator: Adobe Illustrator 21.0.0, SVG Export Plug-In . SVG Version: 6.00 Build 0)  -->
<svg version="1.1" id="Layer_1" xmlns="http://www.w3.org/2000/svg" xmlns:xlink="http://www.w3.org/1999/xlink" x="0px" y="0px"
	 viewBox="0 0 24 24" style="enable-background:new 0 0 24 24;" xml:space="preserve">
<style type="text/css">
	.st0{fill:none;}
</style>
<path class="st0" d="M0,0h24v24H0V0z"/>
<g>
	<g>
		<path d="M20,6h-8l-1.4-1.4C10.2,4.2,9.7,4,9.2,4H4C2.9,4,2,4.9,2,6l0,12c0,1.1,0.9,2,2,2h16c1.1,0,2-0.9,2-2V8C22,6.9,21.1,6,20,6
			z M16.7,16.9L16.7,16.9c-0.3,0.2-0.6,0.2-0.9,0l0,0c-1.7-1.5-2.7-2.5-2.7-3.7c0-0.5,0.3-1,0.7-1.4c0.8-0.6,1.9-0.3,2.4,0.3
			c0.6-0.6,1.6-0.9,2.4-0.3c0.4,0.3,0.7,0.8,0.7,1.4C19.4,14.4,18.3,15.4,16.7,16.9z"/>
	</g>
</g>
</svg>
