<?xml version="1.0" encoding="utf-8"?>
<!-- Generator: Adobe Illustrator 24.0.1, SVG Export Plug-In . SVG Version: 6.00 Build 0)  -->
<svg version="1.1" id="Layer_1" xmlns="http://www.w3.org/2000/svg" xmlns:xlink="http://www.w3.org/1999/xlink" x="0px" y="0px"
	 viewBox="0 0 1920 1080" style="enable-background:new 0 0 1920 1080;" xml:space="preserve">
<style type="text/css">
	.st0{opacity:0.5;}
	.st1{fill:#E5E5E5;}
</style>
<g class="st0">
	<rect x="502.67" y="213.72" class="st1" width="914.17" height="1.68"/>
	<rect x="496.67" y="222.12" class="st1" width="926.17" height="1.68"/>
	<rect x="490.67" y="231" class="st1" width="938.17" height="1.68"/>
	<rect x="484.43" y="240.12" class="st1" width="950.65" height="1.68"/>
	<rect x="477.95" y="249.24" class="st1" width="963.61" height="1.68"/>
	<rect x="471.47" y="258.84" class="st1" width="976.81" height="1.68"/>
	<rect x="464.75" y="268.68" class="st1" width="990.25" height="1.68"/>
	<rect x="457.55" y="278.76" class="st1" width="1004.17" height="1.68"/>
	<rect x="450.59" y="289.08" class="st1" width="1018.57" height="1.68"/>
	<rect x="443.15" y="299.64" class="st1" width="1033.21" height="1.68"/>
	<rect x="435.47" y="310.68" class="st1" width="1048.57" height="1.68"/>
	<rect x="427.79" y="321.96" class="st1" width="1064.17" height="1.68"/>
	<rect x="419.63" y="333.48" class="st1" width="1080.25" height="1.68"/>
	<rect x="411.47" y="345.48" class="st1" width="1096.82" height="1.68"/>
	<rect x="402.83" y="357.96" class="st1" width="1113.86" height="1.68"/>
	<rect x="393.95" y="370.68" class="st1" width="1131.62" height="1.68"/>
	<rect x="384.83" y="383.88" class="st1" width="1149.86" height="1.68"/>
	<rect x="375.47" y="397.32" class="st1" width="1168.58" height="1.68"/>
	<rect x="365.87" y="411.48" class="st1" width="1188.02" height="1.68"/>
	<rect x="355.79" y="425.88" class="st1" width="1208.18" height="1.68"/>
	<rect x="345.23" y="441" class="st1" width="1229.06" height="1.68"/>
	<rect x="334.43" y="456.6" class="st1" width="1250.66" height="1.68"/>
	<rect x="323.39" y="472.68" class="st1" width="1272.74" height="1.68"/>
	<rect x="311.87" y="489.48" class="st1" width="1296.02" height="1.68"/>
	<rect x="299.87" y="506.76" class="st1" width="1319.78" height="1.68"/>
	<rect x="287.39" y="524.76" class="st1" width="1344.74" height="1.68"/>
	<rect x="274.43" y="543.24" class="st1" width="1370.66" height="1.68"/>
	<rect x="261.23" y="562.68" class="st1" width="1397.54" height="1.68"/>
	<rect x="247.31" y="582.84" class="st1" width="1425.38" height="1.68"/>
	<rect x="232.67" y="603.72" class="st1" width="1454.42" height="1.68"/>
	<rect x="217.55" y="625.56" class="st1" width="1484.66" height="1.68"/>
	<rect x="201.71" y="648.36" class="st1" width="1516.1" height="1.68"/>
	<rect x="185.39" y="672.12" class="st1" width="1548.98" height="1.68"/>
	<rect x="168.11" y="697.08" class="st1" width="1583.3" height="1.68"/>
	<rect x="150.35" y="723" class="st1" width="1619.3" height="1.68"/>
	<rect x="131.39" y="750.12" class="st1" width="1656.98" height="1.68"/>
	<rect x="111.71" y="778.44" class="st1" width="1696.34" height="1.68"/>
	<rect x="91.07" y="808.44" class="st1" width="1737.62" height="1.68"/>
	<rect x="69.47" y="839.64" class="st1" width="1781.06" height="1.68"/>
	<polygon class="st1" points="92.51,874.2 91.07,873.24 530.03,205.8 531.71,206.76 	"/>
	<polygon class="st1" points="138.35,874.2 136.91,873.24 552.83,205.8 554.27,206.76 	"/>
	<polygon class="st1" points="183.95,874.2 182.51,873.24 575.39,205.8 576.83,206.76 	"/>
	<polygon class="st1" points="229.79,874.2 228.11,873.24 597.96,205.8 599.4,206.76 	"/>
	<polygon class="st1" points="275.39,874.2 273.71,873.48 620.28,205.8 621.96,206.76 	"/>
	<polygon class="st1" points="320.99,874.2 319.55,873.48 642.84,205.8 644.52,206.76 	"/>
	<polygon class="st1" points="366.83,874.2 365.15,873.48 665.4,206.04 667.08,206.76 	"/>
	<polygon class="st1" points="412.43,874.2 410.75,873.48 687.96,206.04 689.64,206.52 	"/>
	<polygon class="st1" points="458.03,874.2 456.35,873.48 710.52,206.04 712.2,206.52 	"/>
	<polygon class="st1" points="503.87,873.96 502.19,873.48 733.08,206.04 734.76,206.52 	"/>
	<polygon class="st1" points="549.47,873.96 547.79,873.48 755.64,206.04 757.32,206.52 	"/>
	<polygon class="st1" points="595.07,873.96 593.39,873.48 778.2,206.04 780.12,206.52 	"/>
	<polygon class="st1" points="640.92,873.96 639,873.48 800.76,206.04 802.68,206.52 	"/>
	<polygon class="st1" points="686.52,873.96 684.84,873.48 823.32,206.04 825.24,206.52 	"/>
	<polygon class="st1" points="732.12,873.96 730.44,873.72 845.88,206.04 847.8,206.52 	"/>
	<polygon class="st1" points="777.96,873.96 776.04,873.72 868.44,206.04 870.36,206.52 	"/>
	<polygon class="st1" points="823.56,873.96 821.64,873.72 891,206.28 892.92,206.28 	"/>
	<polygon class="st1" points="869.16,873.72 867.48,873.72 913.8,206.28 915.48,206.28 	"/>
	<polygon class="st1" points="914.76,873.72 913.08,873.72 936.12,206.28 938.04,206.28 	"/>
	<rect x="958.68" y="206.28" class="st1" width="1.68" height="667.45"/>
	<polygon class="st1" points="1004.52,873.72 981.24,206.28 983.16,206.28 1006.2,873.72 	"/>
	<polygon class="st1" points="1050.12,873.72 1003.8,206.28 1005.72,206.28 1051.8,873.72 	"/>
	<polygon class="st1" points="1095.72,873.96 1026.36,206.28 1028.28,206.28 1097.64,873.72 	"/>
	<polygon class="st1" points="1141.56,873.96 1049.16,206.52 1050.84,206.04 1143.24,873.72 	"/>
	
		<rect x="1129.36" y="201.3" transform="matrix(0.9854 -0.1705 0.1705 0.9854 -75.5317 200.5979)" class="st1" width="1.68" height="677.56"/>
	<polygon class="st1" points="1232.76,873.96 1094.28,206.52 1095.96,206.04 1234.44,873.48 	"/>
	<polygon class="st1" points="1278.6,873.96 1116.84,206.52 1118.52,206.04 1280.28,873.48 	"/>
	<polygon class="st1" points="1324.2,873.96 1139.4,206.52 1141.08,206.04 1325.89,873.48 	"/>
	<polygon class="st1" points="1369.81,873.96 1161.96,206.52 1163.64,206.04 1371.49,873.48 	"/>
	<polygon class="st1" points="1415.65,873.96 1184.52,206.52 1186.2,206.04 1417.33,873.48 	"/>
	<polygon class="st1" points="1461.25,874.2 1207.08,206.52 1208.76,206.04 1462.93,873.48 	"/>
	<polygon class="st1" points="1506.85,874.2 1229.64,206.52 1231.32,206.04 1508.53,873.48 	"/>
	<polygon class="st1" points="1552.69,874.2 1252.2,206.76 1253.88,206.04 1554.13,873.48 	"/>
	<polygon class="st1" points="1598.29,874.2 1274.76,206.76 1276.44,205.8 1599.97,873.48 	"/>
	<polygon class="st1" points="1643.89,874.2 1297.56,206.76 1299,205.8 1645.57,873.48 	"/>
	<polygon class="st1" points="1689.73,874.2 1320.12,206.76 1321.56,205.8 1691.17,873.24 	"/>
	<polygon class="st1" points="1735.33,874.2 1342.69,206.76 1344.13,205.8 1737.01,873.24 	"/>
	<polygon class="st1" points="1781.17,874.2 1365.25,206.76 1366.69,205.8 1782.61,873.24 	"/>
	<polygon class="st1" points="1826.77,874.2 1387.81,206.76 1389.25,205.8 1828.21,873.24 	"/>
</g>
</svg>
