<?xml version="1.0" encoding="utf-8"?>
<!-- Generator: Adobe Illustrator 24.0.1, SVG Export Plug-In . SVG Version: 6.00 Build 0)  -->
<svg version="1.1" id="Layer_1" xmlns="http://www.w3.org/2000/svg" xmlns:xlink="http://www.w3.org/1999/xlink" x="0px" y="0px"
	 viewBox="0 0 338.67 317" style="enable-background:new 0 0 338.67 317;" xml:space="preserve">
<style type="text/css">
	.st0{fill-rule:evenodd;clip-rule:evenodd;fill:#91B2C9;}
	.st1{opacity:0.57;fill-rule:evenodd;clip-rule:evenodd;fill:#A9C3D6;}
	.st2{opacity:0.66;fill-rule:evenodd;clip-rule:evenodd;fill:#799AB0;}
	.st3{opacity:0.57;fill-rule:evenodd;clip-rule:evenodd;fill:#CEE0ED;}
	.st4{fill-rule:evenodd;clip-rule:evenodd;fill:#799AB0;}
	.st5{fill-rule:evenodd;clip-rule:evenodd;fill:#9FBCD1;}
</style>
<g>
	<g>
		<path class="st0" d="M266.38,182.24c16.9,0.23,31.89-10.81,36.67-27.03c4.78-16.21-1.82-33.63-16.14-42.6
			c-14.32-8.97-32.87-7.31-45.38,4.06c4.69-21.8-3.12-44.39-20.26-58.65c-17.14-14.26-40.78-17.81-61.36-9.23
			c-20.58,8.58-34.69,27.88-36.62,50.09c-11.05-6.05-24.4-6.16-35.54-0.3c-11.15,5.87-18.61,16.93-19.88,29.47
			c-9.58-4.22-20.75-2.52-28.63,4.36c-7.89,6.89-11.09,17.71-8.2,27.78c2.89,10.07,11.34,17.55,21.68,19.21
			c8.06,2.84,25.51,3.78,52.34,2.83C158.84,182.67,212.61,182.67,266.38,182.24z"/>
		<path class="st1" d="M184.84,44.17c25.11,0,45.47,16.86,45.47,37.65c0,20.79-20.36,37.65-45.47,37.65
			c-25.11,0-45.47-16.86-45.47-37.65C139.38,61.03,159.73,44.17,184.84,44.17z"/>
		<path class="st2" d="M266.38,182.24c16.9,0.23,31.89-10.81,36.67-27.03c4.6-15.6-1.34-32.32-14.56-41.56
			c-0.51-0.36-1.42-1.66-1.58-1.04c-17.27,66.36-193.51,74-219.03,15.44c-0.25-0.11-0.5-0.22-0.76-0.32
			c-9.41-3.81-20.2-2.02-27.88,4.68c-7.89,6.89-11.09,17.71-8.2,27.78c2.89,10.07,11.34,17.55,21.68,19.21
			c8.06,2.84,25.51,3.78,52.34,2.83C158.84,182.67,212.61,182.67,266.38,182.24z"/>
		<path class="st3" d="M176.06,50.33c11.9,0,21.55,3.99,21.55,8.92c0,4.93-9.65,8.92-21.55,8.92c-11.9,0-21.55-4-21.55-8.92
			C154.51,54.32,164.15,50.33,176.06,50.33z"/>
	</g>
	<g>
		<path class="st0" d="M165.39,196c0.32,12.97-0.82,22.82-3.42,29.53c-4.15,10.74-14.21,13.65-18.48,8.52
			c-2.37-2.85-2.56-8.07-0.88-12.61C146.45,211.06,159.46,204.59,165.39,196z"/>
		<path class="st4" d="M161.96,225.53c0.08-0.06-0.09,0.23-0.13,0.34c-4.23,10.46-14.13,13.26-18.35,8.18
			c-0.75-0.9-1.29-2.05-1.61-3.34c-0.04-0.17-0.28-0.6-0.12-0.53C148.1,232.88,154.88,230.87,161.96,225.53z"/>
		<path class="st5" d="M145.41,223.57c1.36,1.09,3.74,0.4,5.32-1.57c1.59-1.96,1.77-4.44,0.42-5.54c-1.36-1.1-3.74-0.39-5.32,1.57
			C144.24,220,144.05,222.48,145.41,223.57z"/>
	</g>
	<g>
		<path class="st0" d="M234.24,198.88c0.18,7.36-0.47,12.95-1.94,16.77c-2.36,6.1-8.07,7.75-10.49,4.83
			c-1.35-1.62-1.45-4.58-0.5-7.16C223.49,207.43,230.88,203.75,234.24,198.88z"/>
		<path class="st4" d="M232.3,215.64c0.05-0.04-0.05,0.13-0.07,0.19c-2.41,5.94-8.02,7.53-10.42,4.64
			c-0.43-0.51-0.73-1.16-0.91-1.89c-0.03-0.1-0.16-0.34-0.07-0.3C224.42,219.81,228.27,218.68,232.3,215.64z"/>
		<path class="st5" d="M222.9,214.53c0.77,0.62,2.12,0.22,3.02-0.89c0.9-1.11,1.01-2.52,0.24-3.14c-0.77-0.62-2.12-0.22-3.02,0.89
			C222.23,212.5,222.13,213.91,222.9,214.53z"/>
	</g>
	<g>
		<path class="st0" d="M202.1,183.5c0.24,9.84-0.62,17.32-2.6,22.41c-3.15,8.15-10.79,10.36-14.03,6.46
			c-1.8-2.16-1.95-6.12-0.67-9.57C187.73,194.93,197.61,190.02,202.1,183.5z"/>
		<path class="st4" d="M199.51,205.92c0.06-0.05-0.07,0.17-0.1,0.25c-3.22,7.94-10.72,10.06-13.93,6.21
			c-0.57-0.69-0.98-1.56-1.22-2.53c-0.03-0.13-0.21-0.45-0.09-0.4C188.98,211.49,194.13,209.97,199.51,205.92z"/>
		<path class="st5" d="M186.94,204.43c1.03,0.83,2.84,0.3,4.04-1.19c1.2-1.49,1.35-3.37,0.32-4.2c-1.03-0.83-2.84-0.3-4.04,1.19
			C186.05,201.72,185.91,203.6,186.94,204.43z"/>
	</g>
	<g>
		<path class="st0" d="M88.1,230.61c0.32,12.97-0.82,22.82-3.42,29.53c-4.15,10.74-14.21,13.65-18.48,8.51
			c-2.37-2.85-2.56-8.07-0.88-12.61C69.17,245.68,82.18,239.21,88.1,230.61z"/>
		<path class="st4" d="M84.68,260.14c0.08-0.06-0.09,0.23-0.13,0.34c-4.23,10.46-14.13,13.26-18.35,8.18
			c-0.75-0.91-1.29-2.05-1.61-3.34c-0.04-0.18-0.28-0.6-0.12-0.53C70.81,267.49,77.59,265.49,84.68,260.14z"/>
		<path class="st5" d="M68.12,258.19c1.35,1.09,3.74,0.39,5.32-1.57c1.59-1.96,1.77-4.44,0.42-5.53c-1.35-1.09-3.74-0.39-5.32,1.57
			C66.95,254.61,66.77,257.09,68.12,258.19z"/>
	</g>
	<g>
		<path class="st0" d="M128.19,221.88c0.18,7.36-0.47,12.95-1.94,16.77c-2.36,6.1-8.07,7.75-10.49,4.83
			c-1.35-1.62-1.46-4.58-0.5-7.16C117.44,230.43,124.82,226.76,128.19,221.88z"/>
		<path class="st4" d="M126.25,238.65c0.04-0.04-0.05,0.13-0.08,0.19c-2.4,5.94-8.02,7.53-10.42,4.65c-0.43-0.52-0.73-1.16-0.92-1.9
			c-0.03-0.1-0.16-0.34-0.07-0.3C118.37,242.82,122.22,241.68,126.25,238.65z"/>
		<path class="st5" d="M116.84,237.54c0.77,0.62,2.12,0.22,3.02-0.89c0.9-1.11,1-2.52,0.24-3.14c-0.77-0.62-2.12-0.22-3.02,0.89
			C116.18,235.51,116.07,236.91,116.84,237.54z"/>
	</g>
	<g>
		<path class="st0" d="M114.59,191.24c0.18,7.36-0.47,12.95-1.94,16.77c-2.36,6.1-8.07,7.75-10.49,4.84
			c-1.35-1.62-1.46-4.58-0.5-7.16C103.84,199.8,111.23,196.12,114.59,191.24z"/>
		<path class="st4" d="M112.65,208.01c0.04-0.03-0.05,0.13-0.08,0.19c-2.4,5.94-8.02,7.53-10.42,4.65c-0.43-0.51-0.73-1.17-0.92-1.9
			c-0.03-0.1-0.16-0.34-0.07-0.3C104.77,212.18,108.62,211.05,112.65,208.01z"/>
		<path class="st5" d="M103.25,206.9c0.77,0.62,2.12,0.22,3.02-0.89c0.9-1.11,1.01-2.52,0.24-3.14c-0.77-0.62-2.12-0.22-3.02,0.89
			C102.58,204.87,102.48,206.28,103.25,206.9z"/>
	</g>
	<g>
		<path class="st0" d="M190.74,236.51c0.18,7.37-0.47,12.96-1.94,16.77c-2.36,6.1-8.07,7.75-10.49,4.84
			c-1.35-1.62-1.46-4.58-0.5-7.16C179.99,245.06,187.37,241.39,190.74,236.51z"/>
		<path class="st4" d="M188.8,253.28c0.05-0.03-0.05,0.13-0.07,0.19c-2.41,5.94-8.02,7.53-10.42,4.64c-0.43-0.51-0.73-1.17-0.91-1.9
			c-0.03-0.1-0.16-0.34-0.07-0.3C180.92,257.45,184.77,256.31,188.8,253.28z"/>
		<path class="st5" d="M179.4,252.17c0.77,0.62,2.12,0.22,3.02-0.89c0.9-1.12,1.01-2.52,0.24-3.14c-0.77-0.62-2.12-0.22-3.02,0.89
			C178.73,250.14,178.62,251.55,179.4,252.17z"/>
	</g>
</g>
</svg>
