<?xml version="1.0" encoding="utf-8"?>
<!-- Generator: Adobe Illustrator 24.0.1, SVG Export Plug-In . SVG Version: 6.00 Build 0)  -->
<svg version="1.1" id="Layer_1" xmlns="http://www.w3.org/2000/svg" xmlns:xlink="http://www.w3.org/1999/xlink" x="0px" y="0px"
	 viewBox="0 0 500 443.67" style="enable-background:new 0 0 500 443.67;" xml:space="preserve">
<style type="text/css">
	.st0{fill-rule:evenodd;clip-rule:evenodd;fill:#FFAE00;}
	.st1{fill-rule:evenodd;clip-rule:evenodd;fill:#FFD40F;}
	.st2{opacity:0.57;fill-rule:evenodd;clip-rule:evenodd;fill:#FFF52E;}
	.st3{opacity:0.45;fill-rule:evenodd;clip-rule:evenodd;fill:#FFAC05;}
</style>
<g>
	<path class="st0" d="M155.2,127.55c24.22,35.12,14.55,51.13-28.94,43.48c36.17,25.34,31.94,43.18-10.02,50.89
		c41.96,7.71,46.48,26.25,10.31,51.58c43.49-7.66,52.93,7.72,28.71,42.84c35.13-24.22,50.88-14.43,43.22,29.06
		c25.34-36.17,43.81-31.85,51.52,10.11c7.71-41.96,25.36-45.94,50.7-9.77c-7.66-43.49,8.63-53.33,43.76-29.11
		c-24.22-35.12-15.07-50.62,28.43-42.96c-36.17-25.33-31.08-44.04,10.88-51.75c-41.97-7.7-46.56-26.44-10.39-51.78
		c-43.49,7.66-53.07-7.74-28.85-42.86c-35.12,24.22-50.08,14.37-42.42-29.12c-26.37,36.17-44.08,31.97-52.1-10
		c-8.02,41.96-25.79,46.72-52.16,10.55C205.5,142.2,190.33,151.78,155.2,127.55z"/>
	<circle class="st1" cx="250" cy="221.83" r="87.45"/>
	<path class="st2" d="M250,134.38c35.64,0,64.54,23.93,64.54,53.44s-28.89,53.44-64.54,53.44c-35.64,0-64.54-23.93-64.54-53.44
		S214.36,134.38,250,134.38z"/>
	<path class="st3" d="M170.16,257.58C190.24,280.71,219.37,294,250,294c30.63,0,59.76-13.29,79.84-36.42
		c-14.09,31.47-45.36,51.72-79.84,51.72C215.52,309.3,184.26,289.04,170.16,257.58z"/>
</g>
</svg>
