<?xml version="1.0" encoding="utf-8"?>
<!-- Generator: Adobe Illustrator 24.0.1, SVG Export Plug-In . SVG Version: 6.00 Build 0)  -->
<svg version="1.1" id="Layer_1" xmlns="http://www.w3.org/2000/svg" xmlns:xlink="http://www.w3.org/1999/xlink" x="0px" y="0px"
	 viewBox="0 0 500 443.67" style="enable-background:new 0 0 500 443.67;" xml:space="preserve">
<style type="text/css">
	.st0{fill-rule:evenodd;clip-rule:evenodd;fill:#CEE0ED;}
</style>
<g>
	<path class="st0" d="M191.67,251.44c-35.35-0.4-61.72-1.69-79.11-3.87c-6.53-0.82-17.42-1.8-22.75-6.22
		c-5.52-4.57-8.13-11.96-6.35-18.98c2.13-8.42,9.97-13.94,18.7-13.19c8.74,0.76,15.97,7.37,17.19,16.07
		c-1.76-12.48-12.06-22.27-24.59-23.35c-12.53-1.08-23.77,6.84-26.82,18.91c-2.55,10.07,1.2,20.67,9.11,27.22
		C98.17,265.54,165.71,251.15,191.67,251.44z"/>
	<path class="st0" d="M171.69,257.93c-22.1,1.32-38.58,2.92-49.45,4.81c-4.08,0.71-10.89,1.65-14.23,4.58
		c-3.44,3.02-5.08,7.72-3.97,12.06c1.33,5.2,6.23,8.41,11.69,7.68c5.46-0.74,9.98-5.09,10.75-10.57
		c-1.1,7.85-7.54,14.28-15.37,15.34c-7.83,1.06-14.86-3.56-16.77-11.01c-1.59-6.21,0.75-12.95,5.69-17.29
		C113.24,251.94,155.46,258.89,171.69,257.93z"/>
	<path class="st0" d="M198.1,245.23c-22.14-1.31-38.61-2.91-49.4-4.8c-4.05-0.71-10.83-1.65-13.95-4.57
		c-3.22-3.02-4.48-7.72-3.01-12.06c1.76-5.2,6.96-8.42,12.4-7.68c5.44,0.74,9.63,5.09,9.96,10.57c-0.46-7.86-6.43-14.28-14.22-15.34
		c-7.8-1.05-15.25,3.56-17.78,11.01c-2.11,6.22-0.3,12.96,4.32,17.29C138.76,251.24,181.84,244.27,198.1,245.23z"/>
	<path class="st0" d="M427.78,190.83c-27.87-0.32-48.66-1.33-62.37-3.05c-5.15-0.64-13.74-1.42-17.94-4.9
		c-4.35-3.6-6.41-9.43-5.01-14.97c1.68-6.63,7.86-10.99,14.75-10.39c6.89,0.6,12.59,5.81,13.55,12.67
		c-1.39-9.84-9.51-17.56-19.39-18.41c-9.88-0.85-18.74,5.39-21.14,14.91c-2.01,7.94,0.95,16.29,7.18,21.46
		C354.07,201.94,407.32,190.6,427.78,190.83z"/>
	<path class="st0" d="M412.03,195.94c-17.42,1.04-30.42,2.3-38.99,3.79c-3.22,0.56-8.59,1.3-11.22,3.61
		c-2.72,2.38-4.01,6.09-3.13,9.5c1.05,4.1,4.91,6.63,9.22,6.05c4.31-0.58,7.87-4.01,8.47-8.33c-0.87,6.19-5.94,11.26-12.12,12.09
		c-6.17,0.83-11.71-2.81-13.22-8.68c-1.25-4.9,0.59-10.21,4.49-13.63C365.95,191.22,399.23,196.7,412.03,195.94z"/>
	<path class="st0" d="M432.85,185.94c-17.46-1.04-30.44-2.3-38.95-3.79c-3.19-0.56-8.54-1.3-10.99-3.6
		c-2.54-2.38-3.53-6.09-2.37-9.51c1.39-4.1,5.49-6.63,9.77-6.06c4.29,0.58,7.6,4.01,7.85,8.33c-0.36-6.19-5.06-11.26-11.21-12.09
		c-6.15-0.83-12.02,2.81-14.02,8.68c-1.66,4.9-0.24,10.21,3.41,13.63C386.06,190.67,420.03,185.18,432.85,185.94z"/>
</g>
</svg>
