<?xml version="1.0" encoding="utf-8"?>
<!-- Generator: Adobe Illustrator 24.0.1, SVG Export Plug-In . SVG Version: 6.00 Build 0)  -->
<svg version="1.1" id="Layer_1" xmlns="http://www.w3.org/2000/svg" xmlns:xlink="http://www.w3.org/1999/xlink" x="0px" y="0px"
	 viewBox="0 0 1920 1080" style="enable-background:new 0 0 1920 1080;" xml:space="preserve">
<style type="text/css">
	.st0{opacity:0.3;}
	.st1{fill-rule:evenodd;clip-rule:evenodd;fill:#444444;}
</style>
<g>
	<g class="st0">
		<g id="Path_1_">
			<g>
				<path class="st1" d="M847.64,254.7c-2.66,2.17-10.47,1.15-12.23,3.97c3.56,2.47,9.71-0.53,13.34-0.81
					c4.47,1.8,11.56,2.04,12.92,5.66c-7.98,1.42-20.27,0.14-18.08,8.14c-2.4-0.07-2.93,1.03-5.49,0.83c0.04,3.4,8.63,1.8,7.57,5.8
					c-4.56-0.33-7.57,0.34-10.86,0.88c2.11,5.45,3.2,12.1-6.81,13.61c-0.15,1.43,0.78,2.21,2.52,2.61c-0.48,1.48-2.6,1.96-5.74,1.75
					c0.67,1.78,3.7,2.78,0.99,4.34c-7.22-0.24-12.49-6.18-19.34-1.73c3.1,1.44,7.24,2.25,12.26,2.64
					c-2.85,4.04-11.24,4.42-14.9,7.98c-6.06,2.05-12.99,3.42-17.83,6.33c-5.71-0.67-7.52,1.39-12.87,0.95
					c-4.36,1.28-6.98,3.84-7.01,8.32c-6.99,2.16-7.58,9.15-12.34,13.11c-6.94-0.19-7.04-4.33-16.84-2.81
					c-4.4-2.51-3.07-8.26-1.57-14.08c-1.42-2.45-2.78-4.85-4.24-7.24c1.63-4.43,6.58-6.3,11.48-8.13c1.92-4.28-4.66-3.66-7.33-5.32
					c-0.37-3.28,7.53-0.62,6.43-4.34c-2.45-3.21-7.02,3.03-9.69,0c-0.09-2.79,2.67-3.46,3.78-5.24c-3.19-1.49-2.89-4.97-3.8-7.72
					c-7.3,0.74-10.64-0.67-13.12-2.47c-7.64,0.81-17.12,1.71-16.89-3.42c3.51-2.04,14.22,1.15,15.51-2.47
					c-5.39-1.32-13.91,0.62-20.08-0.88c-0.06-3.28,5.74-2.38,10.02-2.45c3.55-2.23,10.57-2.13,14.43-4.13c0.34-1.56-3.4-1-1.93-3.2
					c11.88-1.69,20.48-5.59,32.13-7.3c5.75,1.38,8.66,1.71,14.53,0c2.34,1.71,6.61,1.76,10.55,0.81c-0.18-1.85-1.62-3-0.43-5.56
					c2.8-2.18,10.04-1.52,16.01-1.55c10.04-1.78,24.97-0.35,36.95-0.83c2.15-0.19,2.15,0.76,3.85,0.83
					C839.88,251.66,848.34,250.59,847.64,254.7z M812.89,258.67c6.99,0.24,19.49,3.9,21.4-1.57
					C829.13,255.85,815.14,255.3,812.89,258.67z M822.26,295.4c0.06-1.51,0.53-2.73,1.72-3.49
					C819.39,291.27,818.25,295.21,822.26,295.4z"/>
				<path class="st1" d="M734.77,257.86c-3.4,1.61-8.81,1.9-14.87,1.61c-2.91,1.52-0.67,2.04-0.94,4.04
					c-8.34,2.89-18.06,4.94-27.32,7.33c-2.72,4.87-8.03,7.94-15.88,9.12c-4.21,0.74,2.73,1.29,0.41,3.4
					c-4.99,0.34-7.32,2.75-10.78,4.23c-10.96-0.47-22.16-0.81-27.44-4.23c0.71-3.58,7.51-0.88,9.84-0.85
					c3.15,0.67,6.95,1.15,11.98,0.85c0.52-5.32-11.24-1.8-15.28-3.4c1.74-2.78,4.86-4.51,10.74-4.16c0.7-1.11,1.72-3.7,4.38-5.8
					c2.12-0.05,5.04,0.39,5.66-0.81c-5.92-2.99-12.63,1.96-16.08,4.09c-8.15,0.32-4.53-5.46-6.88-8.14
					c2.07-2.21,4.92-3.67,8.26-4.85c6.13,0.26,4.36,4.53,10.5,4.85c4.83-2.52-5.84-2.93-1.79-7.3c5.14-1.38,11.59-1.8,18.94-1.55
					c15.53-3.37,28.97-0.26,45.16-0.78C728.62,254.82,735.53,253.77,734.77,257.86z"/>
				<path class="st1" d="M977.61,262.71c-0.05,4.3-10.32,2.8-15.73,4.03c-2.91-1.25-7.53-0.7-10.79-1.58
					c-0.57-0.22-0.9-1.55-1.38-1.64c-1.42-0.39-6.01-0.05-5.41-2.47c7.22,0.63,10.24-1.24,17.24-0.74
					C967.82,260.57,970.77,262.83,977.61,262.71z"/>
				<path class="st1" d="M929.7,266.74c4.29,0.39,0.96-3.7,3.95-4.03c4.9-0.57,5.99,1.25,5.47,4.03
					c10.64,1.69,20.15,4.18,23.28,10.74c-6.66,2.95-11.4-1.59-15.02-3.33c-2.61,1.93-3.08,5.29-3.84,8.37
					c-6.61-0.19-10.51-1.95-15.07-3.35c-1.23-4.11,5.64-3.21,5.32-6.68c-3.7-2.52-7.43,2-12.09,1.66c2.04-5.65-6.1-5.08-6.68-9
					C918.49,261.63,928.68,262.33,929.7,266.74z"/>
				<path class="st1" d="M1055.09,263.52c-0.47,2.2-6.87,3.37-9.02,2.43C1044.73,263.18,1052.11,261.4,1055.09,263.52z"/>
				<path class="st1" d="M1155.29,269.21c-5.11,1.69-14.41-1-22.8,0C1129.57,261.83,1154.19,263.09,1155.29,269.21z"/>
				<path class="st1" d="M1203.58,281.71c0.54,2.19,0.56,3.99-1.08,5.08c7.22,3.51,22.3,1.08,29.14,5.11
					c5.65-0.16,11.39-0.3,14.36,1.73c12.89,0,25.77,0,38.68,0c2.67-0.26-1.19-3.82,2.67-3.42c3.73-1.21,10.07,1.15,12.72,0.81
					c2.97-0.14,4.78,0.69,5.25,2.61c10.29,1.1,18.86,3.62,27.6,6.11c4.03,0.17,2.06-2.67,5.81-2.61c5.51,0.4,9.56,2.08,12.16,5.25
					c1.55-0.14,2.58,0.19,3.26,0.9c7.78-0.76,12.65,0.14,17.64-0.9c4.73-0.5,4.99,3.15,9.77,2.66c0.94-1.71-2.09-3.19,1.9-4.41
					c9.16,1.42,19.68,1.51,26.47,5.27c3.68,0,7.43,0,11.2,0c5.39,3.35,15.04,2.73,18.53,8.07c4.22-2.02,6.44,1.84,12.28,1.84
					c2.34,4.25,2.76,5.23,2.91,7.31c-6.89,1.22-8.22-3.25-13.5-3.68c-5.97-0.55-7.03,1.16-8.46,2.73c1.85,3.97,7.57,3.88,9.89,7.44
					c-7.73,0-11.18,2.05-17.17,2.85c-1.94,1.38-1.22,4.1-2.67,5.67c-9.86-2.67-20.88-0.45-19.33,4.78c1.48,2.83,5.13,3.61,8.36,4.82
					c-1.52,6.59,2.34,15.96-6.79,18.84c-5.13-4.29-9.3-9.54-15.28-12.91c-5.44-9.84,1.36-13.5,1.62-20.29
					c-2.86-2.86-3.33,1.15-5.29,0.94c-4.31,0.61-5.25-1.72-7.17,0c-1.73,0.42-1.5,1.69-3.4,1.94c1.5,1.38,0.66,4.9,3.7,4.73
					c-8.72,5.53-30.08-3.84-42.1,0c-3.56,1.17-2.34,4.76-2.44,7.73c-0.87,2.11-4.31,2.88-3.37,5.9c1.15,1.31,3.35,1.55,4.26,2.95
					c4.85,0.52,5.13-1.41,7.97-1.99c6.77,2.79,7.61-1.73,11.81,0c2.98,2.91,4.57,7.1,7.45,10.03c4.59,2.88,9.63,5.29,13.24,9.16
					c0.91,3.09-6.33,1.9-1.22,7.22c-6.75,0.3-5.9-7.1-11.25-8.22c-0.77-1.71-1.55-3.44-2.32-5.11c-2.18-3.77-7.71-4.08-8.51-9.07
					c-1.12,4.92,7.64,12.77,9.09,20.29c-2.25,4.73-5.48,8.97-5.62,14.81c-5.69,0.23-7.71,2.53-10.52,4.36
					c2.34,4.29-1.26,5.41,1.1,9.75c3.09,5.25,11.67,11.9,4.43,14.5c-2.77,0.19-3.84-1.34-6.77-1.06c-1.52-2.72-4.17-4.22-4.76-7.87
					c-3.58-3.23-9.28-4.34-13.64-6.63c-5.41,1.03,0.63,4.43,1.59,7.76c-2.41,1.59-5.95,2.48-3.61,6.75
					c2.72,5.65,9.84,7.03,14.08,11.41c0.56,4.22,1.03,8.41,3.93,14.06c-5.62,6.89-7.22,16.35-13.85,22.98
					c-9.23-0.49-15.58,0.61-16.4,5.04c-3.77-1.03-8.22-5.2-10.8-2.51c-1.34,4.92,9.46,10.26,16.17,12.61
					c7.07,13.64,4.17,21.41-4.22,26.1c-6.84-0.05-7.31-6.79-15.51-5.34c-3.02-3.42-6.44-6.35-11.18-7.87
					c-2.04,2.16,1.22,7.68,2.27,11.9c2.95,3.94,7.33,6.66,12.98,8.01c4.62,7.45,12.32,11.6,17.01,19.26
					c-15.6-6.65-37.98-15.23-36.9-32.61c-2.18-6.49-11.15-6.14-11.36-14.34c-2.13-5.23-11.9-2.76-16.8-5.11
					c-3.8-2.46,0.35-2.34-1.92-6.35c-5.6-3.12-8.06-9.42-14.9-11.18c-4.92,0.28-6.66,2.62-10.45,3.68c-4.47,2.72-6.4,7-8.53,11.29
					c-6.68,0.7-3.21,7.87-11.32,7.66c0.61,1.48,0.19,2.34-1.03,2.6c1.97,9.58,4.9,19.94-4.47,22.37c-7.03,0.09-8.6-4.9-9.54-10.64
					c-10.66-9.77-20.2-20.13-27.6-32.05c-1.78-2.46-5.22-3.33-9.14-3.75c0.07-7.78-9.56-7.1-13.89-10.94
					c-10.33,0.3-17.9-2.84-24.23,1.15c-6.89-2.39-13.24-5.27-20.81-7.22c-5.15-4.27-6.25-11.9-14.95-12.96
					c-2.06,0.38-2.23,2.02-4.4,2.32c7.26,4.1,11.11,11.25,17.12,16.71c3.35-1.05,5.01-3.14,10.99-2.46
					c2.2,5.01,6.82,8.03,11.78,10.94c1.24,4.5-1.95,5.95-1.55,9.89c-5.06,5.18-17.03,5.69-19.49,12.68
					c-4.17-0.45-3.28,2.41-8.2,1.36c-5.58,3.51-13.05,5.69-20.9,7.78c-7.87-0.47-9.21-6.49-11.55-11.64
					c-6.79-7.83-13.61-15.46-22.37-21.28c-0.42-5.34-4.9-7.52-7.55-10.94c-3.63,0.16-0.28,5.13-0.96,7.29
					c0.96,4.08,5.41,5.27,8.88,7.33c-0.56,9.04,8.64,10.19,10.31,17.6c7.14,4.33,14.08,8.88,17.22,16.84
					c13.57,1.59,19.28-2.3,30.2-2.62c6.49,17.15-12.44,26.4-16.61,40.84c-5.18,2.11-8.48,5.69-12.98,8.48
					c-1.69,6.16-4.54,11.57-7.01,17.34c3.49,13.42,8.22,34.16,3.49,45.97c-9.87,2.58-9.87,5.04-13.78,12.82
					c-0.33,0.75-3.28,2.69-3.37,3.26c-1.59,6.96,1.83,10.57-2.3,16.59c-1.19,1.66,1.06,2.69-1.57,3.35
					c-2.23,0.54-4.83,1.08-7.43,3.38c2.06,6.37-1.64,8.11-0.73,13.73c-3.37,3-6.79,6.12-11.08,8.67
					c-0.49,7.19-5.32,10.99-8.74,15.98c-15.72,1.85-24.18,10.1-39.3,12.7c-0.14-1.8-2.54-1.38-4.04-1.8
					c-6.24-11.55-9.36-25.75-16.82-35.54c1.84-19.73-6.1-30.18-16.08-38.56c-0.14-11.97,3.21-20.76,5.26-30.27
					c-4.85-16.56-7.18-34.61-18.39-44.82c0.76-8.15,10.35-18.39,1.76-25.21c-4.43,0.09-6.06,2.53-8.8,4.05
					c-6.78-3.3-19.21-2.25-20.68-9.56c-7.33,0.72-8.2,6.51-14.07,8.29c-8.4-0.61-14.69,0.44-21.1,1.26
					c-10.68-0.63-12.01-8.32-21.89-9.56c-2.68-8.62-8.4-14.97-13.67-21.37c0.91-9.96,1.77-19.68,2.6-29.31
					c7.82-10.76,12.45-23.78,26.71-29.03c0-12.61,10.25-17.24,18.78-22.98c2.35,1.34,6.4,1.41,7.74,3.33
					c11.65-6.82,37.47-3.28,52.07-7.8c2.47,1.59,1.38,5.74,1.62,9.02c5.46,7.9,21.33,8.39,30.55,13.73
					c4.32-1.43,4.37-5.95,9.31-6.89c16.47-1.17,29.73,6.28,43.27,3.42c3.84-3.05,4.15-8.62,3.35-14.81
					c-5.53-3.56-2.77,4.38-9.16,3.33c0.52-2.34-1.36-2.93-1.92-4.5c-4.9,1.08-10.03,2.65-15.68,1.17c-5.11-1.38-5.71-5.27-9.84-6.77
					c2.18-1.62,1.85-7.15-0.52-8.74c-8.22-0.33-2.81,8.65-3.91,13.26c-3.07,0-6.29,0-9.4,0c1.71-7.8-5.59-8.95-6.9-14.36
					c-5.23-5.53-14.91-7.68-20.34-12.93c-6.34,8.09,10.74,9.04,15.73,12.93c2.8,2.91-6.75,2.13-1.45,3.23
					c-4.11,2.58-5.01,7.31-12.25,7.78c-4.64-3.23,4.21-2.65,4.53-5.58c-2.52-6.26-13.54-6.54-18.77-10.87
					c-1.27,5.77,3.8,9.3-1.38,12c-7.46-2.91-5.75-11.81-3.26-16.23c-6.16,0.28-8.95,3.77-15.32,1.01c-7.82,0.65-7.94,6.7-14.09,8.67
					c0.84,7.26-4.52,10.17-8.15,14.36c-8.2-1.19-18.45,0.89-26.51-2.22c-1.53-7.36,1.17-11.27,1.18-19.78
					c9.87,0.47,14.57-3.35,23.1-1.03c2.11-0.54,3.71-1.62,4.69-3.23c0.22-7.01-6.44-9.3-14.85-10.47c3.51-5.36,13.35-6.18,19.92-9.3
					c-5.03-2.41-16.72-0.59-22.4,0c-0.12-2.84,4.36-2.51,6.09-4.03c-0.47-1.97-4.1-1.85-2.73-5.06c-0.34-4.01,8.72-1.55,7.66-6
					c0.48-3.16-5.09-2.39-7.18-3.91c1.11-5.95,1.45-12.39,9.4-13.61c4.51,0.68,1.75,2.6,1.31,4.83c3.07,0.14,3.01,2.44,2.67,4.83
					c4.77,2.65,3.23,9.44,10.06,10.87c-0.57,3.26-8.06,5.23-3.3,9.07c1.87,2.44,4.4-3.04,7.61-3.04c2.2-1.27,2.25-3.82,4.45-4.99
					c5.18-0.96,9.63-2.23,13.44-4.03c-3.16-3.73-0.36-6.72,2.85-8.86c-2.22-1.66-8.77-0.61-10.14-2.86c0.82-4.99-1.7-7.8-4.31-10.57
					c1.28-2.34,4.02-3.68,4.43-6.55c2.79-2.28,8.5-2.5,8.6-6.47c4.18-0.05,5.73-1.69,9.86-3.66c4.44-12.07,23.78-14.49,37.18-20.5
					c2.8,0,5.52,0,8.33,0c0.14,0.83,1.69,0.63,2.79,0.83c2.2,1.32,4.43,2.66,5.83,4.42c6.68,1.18,11.55,3.47,18.56,4.42
					c5.04,1.83,13.63,3.61,10.66,8.13c-4.76-1.34-11.9-0.88-18.49-0.96c-1.45,2.43,1.97,8.61,7.92,9.15
					c2.46-0.21,3.07-1.56,2.51-3.68c5.72-1.38,9.84-3.7,14.97-5.47c1.9-2.02-0.84-6.64,3.37-7.17c5.93-0.83,6.28,2.14,6.35,5.34
					c8.25-0.37,10.66-4.2,15.98-6.24c6.47,0,13.07,0,19.61,0c4.31-1.85-5.9-3.28-2.11-4.42c5.51-0.29,7.97,1.59,14.06,0.9
					c7.03-1.83,10.43-5.68,13.52-9.61c6.28-0.88,10.59,6.79,14.2,1.71c3.7-0.37,1.92,3.23,4.76,3.48c4.4,0.9,2.13-1.96,2.13-3.48
					c6.07-0.76,8.06,1.43,12.77,1.77c0.4-3.35-6.32-1.45-5.34-5.23c1.5-0.71,3.42-1.09,6.75-0.81c4.85-3.1,7.61-7.26,18.86-6.84
					c2.53-0.81,4.99-1.71,7.52-2.56c3.58-0.57,3.21,1.69,5.88,1.71c5.93-1.21,8.9-3.91,10.1-7.58c9.56,0.64,15.14,4.97,25.09,2.54
					C1198.71,277.78,1200.75,279.98,1203.58,281.71z M1104.45,303.29c-0.4-0.34-1.97,0.37-1.24,0.81
					C1103.73,304.38,1105.25,303.76,1104.45,303.29z M1108.97,305.05c-0.98,0.17-2.69,0-2.53,0.86
					C1107.47,305.72,1109.16,305.9,1108.97,305.05z M961.49,317.64c-3.54,4.04-6.86,8.22-12.41,11.07c1.24,3.51-1.63,4.46-1.28,7.54
					c0.71,1.83,3.23,2.34,3.09,4.73c-5.8,3.47-3.74,12.23-12.79,13.64c-7.6-1.41-5.83-9.21-13.25-10.73
					c-0.34,5.74,4.63,7.97,5.89,12.7c1.14,0.26,2.99,0.07,2.99,0.98c6.56,1.1,4.8-3.35,10.21-2.95c4.43,0,8.92,0,13.31,0
					c2.84-3.54,0.43-10.5,5.32-12.68c3.37-0.21,1.77,2.81,4.55,2.93c0.74-2.32,1.87-4.43,1.07-7.66c-4.18-1.52-8.32-2.91-11.81-4.76
					c-1.55-7.98,9.93-7.6,9.34-14.82C964.33,317.64,962.87,317.64,961.49,317.64z M972.67,339.07c3.61-0.09,7.4-0.19,7.03-2.81
					C975.99,336.3,972.24,336.44,972.67,339.07z M1310.35,410.99c2.6,0.59,4.62,1.71,7.17,2.2
					C1321.9,407.92,1307.58,403.57,1310.35,410.99z"/>
				<path class="st1" d="M599.78,275.82c1.31,0,2.67,0,4.08,0c1.17,1,0.43,2.97-0.49,4.99c8.98,0.26,12.69-3.58,21.58-3.33
					c2.2,1.85-0.81,5.59-3.61,6.7c-6.69,0.93-7.33-1.37-10.03-2.47c-10.02,2.52-20.87,4.42-32.24,5.89
					c-0.08,2.81,9.11,0.95,8.06,4.3c7.75-4.03,18.03-6.03,31.97-5.11c0.7,1.98,1,4.14,0.5,6.84c-6.34,1.55-10.29,5.08-18.46,5.23
					c-0.82,2.32-1.24,5.04-3.55,6.17c-4.53,0.17-5.32-1.55-10.91-0.95c0.98,2.94,4.31,4.6,9.36,5.36c5.54-0.05,8.5-2.24,12.44-3.56
					c4.01-0.33,0.14,3.33,3,3.56c7.44-0.47,8.46-7.26,4.37-8.83c0.47-2.21,3.06-2.72,4.26-4.37c10.07,0.45,8.5,7.12,16.63,8.79
					c-0.57,2.13,1.78,2.71-1.38,4.42c1.3,2.05,5.62-2.78,8.06-3.56c0.78-2.61-6.27-1.14-7.59-2.61c0.36-1.71,0.05-3-1.64-3.54
					c4.18-4.76,7.42-10.1,15.9-11.29c3.71-0.23,2.99,1.8,3.07,3.45c4.27,0.41,3.9-2.64,8.76-1.69c2.12,0.81,2.01,2.86,4.59,3.42
					c3.95,0.6,4.44-1.47,8.41-0.86c5.38,0.15,4.59,3.5,8.57,4.36c9.96-1.22,11.01,2.5,13.97,5.25c-0.65,1.64-1.7,2.94-3.71,3.51
					c1.72,3.95,13.21,2.54,13.78,7.19c0.56,3.92-3.86,4.16-5.72,6.35c-5.22,0.55-6.66-1.04-9.5-1.8c-3.03,1.95,1.02,4.68,1.05,7.32
					c-2.64,2.44-4.21,5.62-6.4,8.41c-9.52-4.31-15.87-10.27-31.38-11.2c1.02-4.09,7.19-3.96,11.48-5.48
					c4.32-0.95,7.65-2.79,9.9-5.42c-2.75-5.87-12.63-7.77-25.8-7.98c-4.54,0.81,2.65,1.43,2.05,2.61c-1.6,3.47-3.15,7.08-5.74,9.91
					c-7.44-0.69-11.42,1.39-16.4,2.73c-2.48,0.24-3.65,1.57-3.92,3.63c-4.39-0.02-6.22,2.03-9.46,2.79
					c-5.35,6.29-14.86,9.14-21.93,14.1c-1.37,3.66,5.24,2.88,1.72,7.76c11.63,0.28,9.55,8.1,25.92,5.86
					c2.08,2.95-2.73,9.7,2.58,10.94c5.95-0.54,3.09-8.22,8.61-9c0.52-1.71-0.3-2.53-2.03-2.93c2.27-3.7,5.13-0.05,7.87-1.99
					c0.74-5.88,5.48-15.28,10.44-20.99c8.68-1.59,15.46,3.23,23.17,4.66c-0.47,2.93-2.8,6.98-0.82,8.57
					c6.68,0.73,10.92-0.54,12.57-3.82c4.54,2.65,7.27,6.37,5.75,12.58c-0.6,3.72,5.33,3.72,3.98,7.92c1.65,1.31,6.88,0.56,8.44,1.99
					c-0.56,2.6-1.18,5.34-1.78,8.03c-9.34-1.13-11.27,3.73-20.14,3.02c-3.32,0.14-3.84,2.58-4.28,5.18
					c-3.33,0.91-7.49,1.26-8.52,4.12c-0.48,2.93,1.45,4.47,6.47,4.24c-1,4.05-11.36,7.17-12.9,3.07c-7.41,2.02-15.79,3.16-21.65,6.4
					c-1.99,3.3,1.73,3.14-0.22,6.51c-5.97,0.61-10.02,3.02-15.16,4.33c-0.43,6.16-8.06,5.77-8.29,12.18
					c-2.71-0.14-3.69,1.41-6.58,1.08c-0.67,2.32-1.35,4.5-2.05,6.82c-12,1.08-19.92,6.09-25.03,13.89c1.38,4.24,0.91,9.54-2.1,16.57
					c-10.18-0.09-5.29-9.07-8.67-13.12c-7.8,0.3-17.22-1.13-21.67,2.34c-5.61-0.49-7.54-3.12-15.39-2.34
					c-6.21,0.8-10.6,3.33-16.17,4.76c1.33,8.9-21.17,31.82,1.73,30.46c5.5-1.73,6.95-7.68,11.83-9.87c6.35,0.8,6.35,0.8,13.28,0
					c-1.3,6.98-5.49,11.29-9.01,16.19c1.41,4.83,17.63,0.84,18.01,6.44c-1.17,7.94-8.53,13.4-6.5,19.68c5.59-1.9,21-8.5,18.36,1.31
					c8.38-4.8,16.96-9.51,24.82-14.53c3.81,0.42,6.9,1.36,7.29,3.89c4.97,0.99,4.36-3.56,9.34-2.58c1.67,3.89,5.94,6.3,9.28,9.21
					c6.74-3.89,10.46,0.16,16.42,2.69c3.45,1.43,8.53,1.73,9.63,2.6c3.69,2.93,2.78,10.38,7.41,12.18
					c15.07-3.49,24.29,3.87,18.67,18.09c6.34,5.69,19.54,6.75,27.74,11.43c4.79,0,9.5,0,14.25,0c4.73,2.97,8.11,9.3,16.89,5.76
					c2.4,1.71,1.97,5.53,4.22,7.26c-3.54,20.8-19.99,29.89-31.31,44.37c-0.07,3.7,1.84,5.95-0.2,11.18c-3,7.03-7.6,12.7-10.99,19.8
					c-5.07,2.06-12.06,2.06-16.33,4.85c-5.73,0.77-5.97,7.36-11.36,8.53c-4.77,18.77-19.28,27.29-30.06,40.46
					c-5.31,2.32-14.04,0.73-18.88,3.56c-1.13,5.9,2.74,7.99,0.65,14.74c-7.81,3.66-14.28,8.81-24.68,9.42
					c-4.39,6.14-7.59,14.06-17.61,13.45c8.33,5.39-2.37,19.38-9.3,27.51c-1.78,6.82,5.11,6.89,2.68,14.27
					c-8.25,6.58-18.27,11.22-21.53,24.9c1.31,8.72,4.4,15.98,12.5,19.49c-7.36,9.54-24.94,2.67-30.71,0
					c-3.58-13.68-12.73-22.59-4.85-44.4c0.66-4.83-0.09-8.5-0.64-12.3c2.99-13.87,7.09-20.67,6.42-29.48
					c1.89-8.18,13.05-4.45,12.7-15.32c0.04-2.56-4.76-1.52-7.68-1.9c2.17-25.54,24.32-36.9,22.62-57.56
					c0.47-4.01,2.2-6.54,4.46-8.62c2.93-4.73-1.57-4.29,0.41-8.32c-0.26-4.83,3.88-4.38,4.37-8.34c-0.52-5.48,1.52-12.53-1.02-16.3
					c-2.69-5.11-7.11-8.88-13.61-11.22c0.11-4.27-1.42-7.31-4.5-9.42c0.62-2.79,3.17-3.26,3.7-6.16
					c-6.88-3.19-12.23-7.29-11.65-15.25c0.42-5.65,7.94-3.28,9.59-7.47c-0.31-2.86-3.55-3.91-7.54-4.45
					c4.56-6.91,3.15-13.45,7.45-23.06c8.55-8.06,19.12-20.71,12.77-28.98c-4.99-0.96-4.45,3.73-9.43,2.72
					c-4.79-3.84-11.76-6.23-13.18-12.04c-4.79-3.98-7.92-8.95-18.86-9.18c-1.02-2.72-2.73-5.04-3.77-7.82
					c-19.67,1.4-26.93-4.5-36.77-8.88c0.61-5.46-2.84-8.57,1.65-16.1c-3-4.92-5.33-10-10.78-13.28c-2.8,4.55,0.42,5.81-2.95,10.82
					c-12.21-0.54-5.24-11.76-13.3-14.43c5.04-5.22-0.7-11.22,1.33-17.52c-0.77-3.3-5.53-4.45-7.86-6.89
					c6.62-9.54-0.26-16.57,10.67-23.19c6.34-14.67,14.06-23.29,12.82-34.49c1.25-2.72,2.48-5.34,3.7-8.04
					c0.55-2.48-4.64,0.94-4.39,3.05c-4.34-0.07,0.32-4.73-1.62-6c-3.97-5.67-11.87-9.28-18.19-13.64c-5.93-0.49-9,1.73-14.08,1.92
					c-1.28,3.23-0.5,5.58-3.51,9.77c-8.11,2.18-16.43,4.34-25.2,5.95c1.14-3.98,5.95-4,7.1-7.92c-11.92,2.34-19.83,9.02-31.53,11.88
					c-2.05,2.62-6.17,3.02-7.87,6.07c-10.16,1.01-22.65,7.71-31.41,5.11c5.97-5.25,15.79-5.86,23.29-9.14
					c8.61-3.65,16.94-7.43,23.55-12.93c-1.72-4.4-8.57,0.19-13.8,0.98c1.08-4.4-3.26-5.44-6.93-5.86c6.5-5.2-0.89-4.27,0.69-8.69
					c7.11-11.22,29.53-6.3,40.55-13.17c-3.17-1.33-11.32-3.16-15.79,0c-3.1-0.5-1.18-3.48-1.11-5.52c-1.29-1.38-7.94-0.28-4.95-3.63
					c7.97,0,13.01-2.95,20.36-3.67c5.13,0.99,10.86,1.45,15.98-0.88c-0.69-3.89-12.33-2.56-9.66-7.98
					c11.96-1.59,23.19-3.65,35.8-4.42c3.52-0.15,3.58,1.35,6.04,1.76c5.14,0,10.12,0,15.29,0c4.18,1.76,12.9,1.37,16.4,3.47
					c9.35-0.5,10.84,1.69,18.52-0.81c-0.57,1.66,4.5,0.52,4.79,1.76c4.49-1.02,9.05-1.85,12.79-3.56c5.44-0.62,1.49,3.37,5.38,3.56
					c3-0.28,4.45-1.76,6.76-2.66c4.22,0.24,4.36,2.43,6.9,3.51c7.8-0.62,10.29,1.43,17.81,0.9c3.28,3.35,14.98,2.38,17.27,6.29
					c4.65-2.11-0.57-5.11,4.11-7.19c-6.61,1-9.44-2.14-14,0c-4.66-0.71-2.45-4.9-11.19-3.51c-2.08-1.83,1.29-1.71,2.73-3.51
					c-2.18-1.24-6.77-1.24-6.89-3.48c-4.93,0.48-7.65,2.91-13.58,2.58c-0.26-1.96-1.41-3.43-0.15-6.07
					c0.56-2.73,4.43-2.45,6.95-3.45c0.11-2.94,3-3.56,4.82-5.08c4.59,0,9.11,0,13.69,0c3.13,1.22,7.11,4.69,10.98,3.42
					c4.23-0.76-2.71-1.28-0.11-3.42c4.17,0.39,4.66-2.18,6.75-3.4c5.76,0.36,9.16,2.97,16.01,0.83
					C601.13,280.36,594.55,277.58,599.78,275.82z M597.27,297.97c5.14,0.05,9.71-0.39,10.94-3.48c0.19-1.76-6.02-0.19-4.63-2.59
					c0.43-1.21,6.76-2.78,0.91-2.59C601.37,291.6,597.85,293.59,597.27,297.97z M466.96,446.54c1.46-2.6,0.4-3.8-3.27-3.58
					C462.29,445.48,463.44,446.72,466.96,446.54z"/>
				<path class="st1" d="M1080.44,278.29c-1.05,3.67-5.81,5.42-14.13,5.08c-4.03,3.38-10.96,5.18-18.09,6.84
					c-1.33,6.28,6.12,6.49,7.24,11.27c-5.44,2.27-11.81-1.73-15.91-3.51c2.2-6.28,6.84-10.88,11.64-15.45
					C1062.7,282.1,1068.35,278.43,1080.44,278.29z"/>
				<path class="st1" d="M1286.24,280.81c2.2,6.61-17.78,4.34-19.66-1.64C1275.25,279.53,1280.87,276.82,1286.24,280.81z"/>
				<path class="st1" d="M826.01,312.15c4.47-0.37,3.51,2.45,6.85,2.79c6.93-0.65,6.57-0.15,14.03,0c1.08,2.52,4.31,3.65,3.76,7.24
					c-4.68,2.73-12.44,3.3-21.7,2.79c0.76-2.42-1.6-3.02-5.33-2.79C826.1,316.6,821.15,316.64,826.01,312.15z"/>
				<path class="st1" d="M636.25,320.37c3.95,1.45,9.17,2.21,8,6.44c-6.62-3.3-10.86,3.13-16.02,0.95
					C626.15,325.2,634.26,323.25,636.25,320.37z"/>
				<path class="st1" d="M870.41,354.62c-2.97,3.63-0.06,5.93-1.99,9c-2.2,0.51-7.63-1.2-7.46,1.01
					C850.06,361.61,863.03,351.04,870.41,354.62z"/>
				<path class="st1" d="M700.56,369.66c0.05,7.22,11.02,9.42,3.88,16.52c-3.49-0.96-9.59-0.33-8.2-4.19
					c-5.41-0.87-8.49,1.92-10.64,0C689,376.58,696.48,374.56,700.56,369.66z"/>
				<path class="st1" d="M1371.92,385.22c7.22-0.23,9.37,4.85,18.2,3.07c2.48,4.01-4.92,2.83-1.05,7.43
					c-7.36-1.36-8.86-0.61-13.4,1.1C1370.42,393.47,1376.3,390.61,1371.92,385.22z"/>
				<path class="st1" d="M1380.87,397.92c5.58,1.13,5.74,7.94,10.61,9.82c1.12,4.92,5.25,6.63,6.72,11.06
					c-5.22,6.35-19.87,12.58-35.87,7.99c-1.78-4.76,5.93-4.29,10.19-5.67c5.11-3.26,11.5-5.74,14.32-10.12
					C1382.84,406.05,1381.85,401.25,1380.87,397.92z"/>
				<path class="st1" d="M982.06,422.24c-1.57-0.91-3.68-1.29-6.42-1.13C975.71,417.81,982.97,418.4,982.06,422.24z"/>
				<path class="st1" d="M1364.91,428.99c1.03,0,2.09,0,3.09,0c0.21,1.01,1.17,1.1,2.2,1.19c0.3,0.8,0.63,1.55,0.96,2.3
					c-1.43-0.21-1.31,0.42-1.12,1.17c-1.08,0-2.11,0-3.09,0c-0.19-0.98-1.22-1.17-2.18-1.17c-0.3-0.75-0.63-1.5-0.96-2.3
					C1365.27,430.37,1365.12,429.78,1364.91,428.99z"/>
				<path class="st1" d="M1343.99,456.07c9.98-0.14,7.01,5.88,7.19,9.72C1344.72,464.83,1340.13,458.49,1343.99,456.07z"/>
				<path class="st1" d="M586.23,457.29c2.97-0.47,2.93,0.94,2.65,2.39c-1.32-0.21-1.7,0.47-2.06,1.17
					C584.96,460.69,586.07,458.69,586.23,457.29z"/>
				<path class="st1" d="M596.11,457.29c1.61,0,3.27,0,4.91,0c-0.48,1.55-0.97,3.21-1.46,4.85
					C597.53,461.09,594.88,460.36,596.11,457.29z"/>
				<path class="st1" d="M604.43,462.14c6.04-1.15,1.73,3.96,0.21,4.87C602.57,466.61,604.21,463.94,604.43,462.14z"/>
				<path class="st1" d="M598.21,471.98c-10.1,7.14-19.76-1.5-23.18-4.97c-6.36-0.8-9.7,1.19-15.18,1.29
					c0.41-1.29,0.82-2.51,1.23-3.7c5.19-2.46,14.54-0.75,21.74-1.29C588.13,466.1,595.59,467.53,598.21,471.98z"/>
				<path class="st1" d="M609.18,468.3c0.47-1.29,2.28-0.98,3.77-1.29C612.45,468.21,610.57,467.93,609.18,468.3z"/>
				<path class="st1" d="M615.62,480.69c-10.37,0.33-12.16,0.94-21.61,0c0.39-3.91,3.8-4.9,5.54-7.47
					C606.98,474.04,618.16,471.6,615.62,480.69z"/>
				<path class="st1" d="M1368.36,475.73c3.07,5.27,2.6,8.5,1.38,11.34c-5.18-0.47-9.14-2.16-12.04-5.11
					C1354.91,475.8,1360.65,473.1,1368.36,475.73z"/>
				<path class="st1" d="M1317.38,476.9c0.68,1.76,1.24,3.4,1.87,5.06C1313.2,482.97,1310.65,475.98,1317.38,476.9z"/>
				<path class="st1" d="M586.03,479.48c1.18,3.93-13.62,3.93-9.99,0C577.52,478.49,586.19,476.64,586.03,479.48z"/>
				<path class="st1" d="M621.38,478.17c4.1-0.12,8.05-0.12,9.54,1.31C630.63,482.76,616.62,484.09,621.38,478.17z"/>
				<path class="st1" d="M793.51,484.49c1.09,0,2.23,0,3.4,0c-0.11,0.89-0.2,1.76-0.29,2.58c-1.17,0-2.31,0-3.39,0
					C793.32,486.25,793.43,485.38,793.51,484.49z"/>
				<path class="st1" d="M1385.27,492.2c1.76,0,3.4,0,5.06,0c2.88,5.81,9.02,7.85,14.69,10.4c-0.42,4.36-11.93,2.34-12.53,6.58
					c-3.3-2.69-4.97-7.29-12.44-5.27c0.66-2.3,1.36-4.5,6.86-3.94C1385.37,496.81,1384.1,493.77,1385.27,492.2z"/>
				<path class="st1" d="M1211.69,510.61c5.58,0,7.5,3.75,8.95,8.01c-1.69,1.13-4.19,1.78-8.32,1.29
					C1210.45,515.72,1214.2,515.25,1211.69,510.61z"/>
				<path class="st1" d="M1357.35,519.92c5.48,1.01,9.82,3.3,14.29,5.48c4.99,2.97-1.22,4.55-0.23,8.29
					c1.31,3.21,2.6,6.42,3.89,9.79c0.89,6.98-1.08,12.3-1.55,18.6c-5.2,4.17-11.83-4.62-20.78-2.88
					c-5.01-5.13-10.22-10.1-15.96-14.32c0.12-5.08,3-8.29,8.74-9.86c3.75-2.6,6.21-6.12,10.82-8.18
					C1353.36,522.4,1357.58,522.59,1357.35,519.92z"/>
				<path class="st1" d="M1275.84,524.08c4.62-0.14,4.24,2.25,6.89,0c12.84,4.15,18.91,15.82,32.61,19.4
					c3.66,5.77,12.84,13.99,10.57,20.1c-9.37-0.24-12.96-6.84-20.87-8.67c-0.94-2.91-1.9-5.74-2.86-8.62
					C1293.76,539.22,1275.84,533.57,1275.84,524.08z"/>
				<path class="st1" d="M1384.2,539.31c6.49,1.29,13.54,1.95,16.99,6.98c-2.39,0-4.8,0-7.08,0c2.04,6.79,9.21,7.52,11.32,14.39
					c-4.5,0.35-7.99-0.56-9.02-4.38c-5.06,0.14-0.52,6.18-6.49,5.79c-3.02-3.58-7.19-5.67-9.4-10.07
					C1384.1,549.18,1381.24,542.41,1384.2,539.31z"/>
				<path class="st1" d="M1437.5,540.6c0.42,5.79-6.42,5.69-14.01,4.29C1418.57,537.91,1431.78,538.07,1437.5,540.6z"/>
				<path class="st1" d="M1524,582.89c-7.19-0.24-10.29-6.09-16.52-7.5c-8.72-1.57-3.47,5.06-10.45,4.47
					c-7.24-1.57-12.3-6.47-22.16-4.47c-1.17-2.48-2.34-4.99-3.49-7.45c-7.97-6.77-20.22-7.76-28.11-14.57c-3.54,0-7.15,0-10.66,0
					c-3.42-7.24,7.45-2.86,12.91-2.76c4.33-0.68,3.42-4.31,8.67-4.31c14.95,0.47,23.43,9.49,37.46,11.48
					c6.44,5.72,14.08,10.17,22.66,13.17C1516.34,576.43,1525.94,579.45,1524,582.89z"/>
				<path class="st1" d="M1376.46,578.37c-16.85,0.52-30.27-2.93-43.86-5.97c-0.49-1.45-1.01-2.91-1.57-4.45
					c6.47-2.62,22.09,0.19,28.63,4.45C1367.26,571.97,1374.85,571.74,1376.46,578.37z"/>
				<path class="st1" d="M1491.55,587.44c1.83,0,3.61,0,5.51,0c7.12,11.36,18.32,17.41,26.62,28.02c2.25,3.3,6.72,3.12,8.76,6.47
					c0.66,1.87,1.87,2.83,3.54,3.16c1.85,6.7,7.15,8.39,9.3,14.76c4.43,6.12,5.44-0.75,11.27,3.45
					c6.54,9.79,15.16,16.59,20.64,28.91c3.35,16.96-3.87,27.79-4.15,43.23c-5.83,1.97-5.74,7.55-11.74,9.42
					c-14.08-1.17-28.96-1.5-40.09-7.45c-2.84-4.59,1.87-4.08-2.23-9.42c-4.05-4.94-12.09-4.19-18.46-5.41
					c-5.81-4.57-10.8-10.05-16.31-14.46c-5.58,1.27-8.08-1.8-12.7-1.8c-10.68,1.71-20.01,4.22-23.36,10.82
					c-16-2.27-19.14,4.1-27.2,7.24c-3-3.21-8.29-3.35-12.11-5.48c-3.42-7.22-0.21-9.93-4.76-17.99
					c-8.79-9.02-12.68-24.69-19.31-36.08c14.74,0.87,16.61-6.54,14.69-16.35c1.66-1.5,4.17-2.27,8.79-1.73
					c-0.98-8.15,3.91-13.57,16.73-9.68c5.58-0.91-0.87-9.16,0.4-12.67c3.54-3.16,12.42-2.97,15.79-6.18
					c1.94-1.87,0.4-5.86,2.25-7.73c9,1.88,19.59,1.69,30.08,1.57c7.97,4.94-1.83,5.39,1.41,10.8c5.67,5.55,15.09,6.49,21.86,11.08
					C1504.74,610.8,1491.01,594.79,1491.55,587.44z"/>
				<path class="st1" d="M1093.35,592.03c2.86,3.65,4.94,8.18,8.93,10.8c-3.33,17.17-1.2,39.22-9.3,53.84
					c-6.09-1.22-6.75,1.66-11.36,1.66c-14.9-9.46-1.69-28.09-8.79-39.66c2.86-6.93,9.63-10.68,16.8-14.29
					C1088.66,598.61,1091.22,595.4,1093.35,592.03z"/>
				<path class="st1" d="M1565.93,734.43c-0.77,4.69,5.72,14.27-3.89,13.52c-8.72,0.75-10.26-10.4-17.83-11.65
					C1542.76,729.28,1560.08,733.03,1565.93,734.43z"/>
				<path class="st1" d="M603.72,792.42c-0.89-1.03,2.1-2.65,2.69-2.08C607.28,791.39,604.16,793,603.72,792.42z"/>
			</g>
		</g>
	</g>
</g>
</svg>
